<svg xmlns="http://www.w3.org/2000/svg" viewBox="0 0 500 500" role="img" aria-label="PMS Digital Solutions favicon">
  <defs>
    <filter id="shadow" x="-20%" y="-20%" width="140%" height="140%">
      <feDropShadow dx="0" dy="10" stdDeviation="12" flood-color="#12304e" flood-opacity="0.18"/>
    </filter>
  </defs>
  <rect x="44" y="44" width="412" height="412" rx="112" fill="#ffffff" stroke="#d8e0ea" stroke-width="10" filter="url(#shadow)"/>
  <g transform="translate(30 525) scale(0.088 -0.088)" fill="#000000" stroke="none">
      <path d="M2137 4075 c19 -15 37 -42 43 -63 5 -21 10 -153 10 -308 l0 -272 96 -61 c52 -33 97 -61 100 -61 2 0 4 169 4 375 0 337 2 376 16 382 33 13 210 -14 265 -41 59 -27 136 -100 167 -158 51 -92 67 -237 38 -346 -39 -145 -159 -264 -296 -293 -28 -6 -50 -13 -48 -14 9 -10 212 18 263 35 163 56 273 185 297 349 32 218 -95 401 -332 477 -46 15 -103 18 -355 21 l-300 4 32 -26z"/>
      <path d="M1953 3865 c-134 -66 -202 -176 -190 -310 13 -140 86 -226 344 -405 299 -208 346 -243 409 -305 173 -170 165 -367 -21 -502 l-30 -22 40 11 c106 28 195 100 242 196 20 42 28 74 31 137 9 176 -68 308 -268 456 -36 27 -69 52 -75 56 -5 5 -75 51 -155 103 -210 136 -286 196 -329 262 -82 122 -56 251 67 329 65 41 25 37 -65 -6z"/>
      <path d="M1751 3263 c65 -27 64 -16 64 -539 l0 -472 -24 -26 c-14 -14 -33 -26 -43 -26 -10 0 -18 -4 -18 -10 0 -6 68 -10 185 -10 117 0 185 4 185 10 0 6 -9 10 -19 10 -25 0 -59 43 -66 84 -3 17 -4 190 -3 384 l3 352 83 -90 82 -91 0 -333 c0 -213 -4 -344 -11 -364 -6 -19 -22 -36 -40 -44 -16 -7 -29 -16 -29 -20 0 -5 81 -8 180 -8 99 0 180 4 180 9 0 5 -9 11 -19 14 -11 2 -28 20 -38 38 -16 31 -18 66 -21 365 l-3 331 -62 50 c-34 28 -134 103 -222 168 -157 117 -277 213 -283 228 -2 4 -25 7 -50 6 l-47 -1 36 -15z"/>
      <path d="M3058 3232 c-15 -26 -78 -129 -141 -230 -113 -182 -114 -184 -103 -223 l10 -39 37 58 c126 198 163 252 171 252 5 0 8 -167 6 -394 -3 -383 -4 -395 -24 -423 -12 -15 -31 -29 -43 -31 -11 -2 -21 -8 -21 -13 0 -5 78 -9 185 -9 107 0 185 4 185 9 0 5 -10 11 -22 13 -12 2 -33 18 -45 37 l-23 34 0 456 c0 438 1 457 20 489 11 18 31 37 45 42 14 5 25 12 25 15 0 3 -53 5 -117 5 l-118 0 -27 -48z"/>
  </g>
</svg>
