<?xml version="1.0" standalone="no"?>
<!DOCTYPE svg PUBLIC "-//W3C//DTD SVG 20010904//EN"
 "http://www.w3.org/TR/2001/REC-SVG-20010904/DTD/svg10.dtd">
<svg version="1.0" xmlns="http://www.w3.org/2000/svg"
 width="500.000000pt" height="500.000000pt" viewBox="0 0 500.000000 500.000000"
 preserveAspectRatio="xMidYMid meet">

<g transform="translate(0.000000,500.000000) scale(0.100000,-0.100000)"
fill="#1d72ff" stroke="none">
<path d="M2137 4075 c19 -15 37 -42 43 -63 5 -21 10 -153 10 -308 l0 -272 96
-61 c52 -33 97 -61 100 -61 2 0 4 169 4 375 0 337 2 376 16 382 33 13 210 -14
265 -41 59 -27 136 -100 167 -158 51 -92 67 -237 38 -346 -39 -145 -159 -264
-296 -293 -28 -6 -50 -13 -48 -14 9 -10 212 18 263 35 163 56 273 185 297 349
32 218 -95 401 -332 477 -46 15 -103 18 -355 21 l-300 4 32 -26z"/>
<path d="M1953 3865 c-134 -66 -202 -176 -190 -310 13 -140 86 -226 344 -405
299 -208 346 -243 409 -305 173 -170 165 -367 -21 -502 l-30 -22 40 11 c106
28 195 100 242 196 20 42 28 74 31 137 9 176 -68 308 -268 456 -36 27 -69 52
-75 56 -5 5 -75 51 -155 103 -210 136 -286 196 -329 262 -82 122 -56 251 67
329 65 41 25 37 -65 -6z"/>
<path d="M1751 3263 c65 -27 64 -16 64 -539 l0 -472 -24 -26 c-14 -14 -33 -26
-43 -26 -10 0 -18 -4 -18 -10 0 -6 68 -10 185 -10 117 0 185 4 185 10 0 6 -9
10 -19 10 -25 0 -59 43 -66 84 -3 17 -4 190 -3 384 l3 352 83 -90 82 -91 0
-333 c0 -213 -4 -344 -11 -364 -6 -19 -22 -36 -40 -44 -16 -7 -29 -16 -29 -20
0 -5 81 -8 180 -8 99 0 180 4 180 9 0 5 -9 11 -19 14 -11 2 -28 20 -38 38 -16
31 -18 66 -21 365 l-3 331 -62 50 c-34 28 -134 103 -222 168 -157 117 -277
213 -283 228 -2 4 -25 7 -50 6 l-47 -1 36 -15z"/>
<path d="M3058 3232 c-15 -26 -78 -129 -141 -230 -113 -182 -114 -184 -103
-223 l10 -39 37 58 c126 198 163 252 171 252 5 0 8 -167 6 -394 -3 -383 -4
-395 -24 -423 -12 -15 -31 -29 -43 -31 -11 -2 -21 -8 -21 -13 0 -5 78 -9 185
-9 107 0 185 4 185 9 0 5 -10 11 -22 13 -12 2 -33 18 -45 37 l-23 34 0 456 c0
438 1 457 20 489 11 18 31 37 45 42 14 5 25 12 25 15 0 3 -53 5 -117 5 l-118
0 -27 -48z"/>
<path d="M708 1894 c21 -15 22 -20 22 -216 0 -180 -2 -202 -17 -214 -16 -12
-7 -13 57 -13 56 0 71 2 58 10 -16 9 -18 31 -18 219 l0 210 45 0 c88 0 125
-39 125 -129 0 -66 -34 -107 -105 -127 l-50 -14 62 4 c107 7 167 59 167 143 0
105 -68 143 -251 143 -109 0 -116 -1 -95 -16z"/>
<path d="M1190 1890 c19 -19 20 -33 20 -210 0 -177 -1 -191 -20 -210 l-20 -20
47 0 c44 0 45 1 30 18 -15 16 -17 45 -17 193 l0 174 85 -160 c47 -88 85 -163
85 -166 0 -4 7 -12 15 -19 12 -10 16 -8 24 13 13 33 159 329 167 336 3 3 4
-77 2 -178 -3 -167 -5 -184 -22 -197 -18 -12 -11 -14 59 -14 75 0 78 1 57 16
-21 15 -22 20 -22 210 0 181 1 195 20 214 20 20 20 20 -32 19 l-53 0 -80 -165
c-43 -90 -82 -164 -86 -164 -3 0 -44 74 -90 165 l-84 165 -52 0 -53 0 20 -20z"/>
<path d="M2775 1814 c-118 -29 -160 -177 -77 -268 55 -59 130 -71 207 -34 l45
22 0 63 0 63 -65 0 c-37 0 -65 -4 -65 -10 0 -5 23 -10 50 -10 l50 0 0 -44 c0
-57 -24 -76 -94 -76 -66 0 -110 28 -132 85 -20 54 -13 103 22 144 44 53 130
64 190 25 27 -18 40 -3 16 19 -29 26 -92 35 -147 21z"/>
<path d="M2000 1655 l0 -165 68 0 c111 1 179 44 201 128 23 84 -24 168 -105
191 -21 6 -67 11 -101 11 l-63 0 0 -165z m191 112 c47 -31 67 -90 50 -146 -21
-72 -66 -101 -157 -101 l-54 0 0 135 0 135 64 0 c49 0 71 -5 97 -23z"/>
<path d="M2450 1654 c0 -128 3 -165 13 -162 9 4 13 48 15 166 2 140 0 162 -13
162 -13 0 -15 -24 -15 -166z"/>
<path d="M3134 1807 c-2 -7 -3 -80 -2 -162 2 -108 6 -149 16 -153 9 -3 12 34
12 162 0 107 -4 166 -10 166 -6 0 -13 -6 -16 -13z"/>
<path d="M3330 1805 c0 -12 13 -15 55 -15 l55 0 0 -151 c0 -116 3 -150 13
-147 9 4 13 45 15 151 l3 147 54 0 c42 0 55 3 55 15 0 13 -21 15 -125 15 -104
0 -125 -2 -125 -15z"/>
<path d="M3811 1793 c-22 -48 -121 -292 -121 -297 0 -3 6 -6 13 -6 7 0 21 23
31 50 l18 50 80 0 79 0 21 -47 c25 -57 24 -57 37 -49 6 4 -15 66 -51 154 -33
81 -62 153 -65 160 -9 21 -29 13 -42 -15z m58 -93 c17 -41 31 -78 31 -82 0 -5
-29 -8 -65 -8 -38 0 -65 4 -65 10 0 12 62 162 65 158 2 -2 17 -37 34 -78z"/>
<path d="M4134 1807 c-2 -7 -3 -80 -2 -162 l3 -150 103 -3 c86 -2 102 0 102
13 0 12 -16 15 -90 15 l-90 0 0 150 c0 96 -4 150 -10 150 -6 0 -13 -6 -16 -13z"/>
<path d="M1608 1292 c-39 -8 -28 -58 15 -64 12 -2 23 -12 25 -22 4 -17 0 -18
-34 -13 -36 6 -37 5 -20 -8 25 -19 41 -19 61 1 24 25 13 42 -37 58 -10 3 -18
13 -18 22 0 12 7 15 30 12 17 -3 30 -1 30 3 0 9 -31 16 -52 11z"/>
<path d="M1840 1293 c-23 -8 -40 -34 -40 -60 0 -26 32 -63 55 -63 21 0 65 45
65 65 0 17 -43 66 -57 64 -4 0 -15 -3 -23 -6z m48 -25 c7 -7 12 -21 12 -33 0
-12 -5 -26 -12 -33 -7 -7 -21 -12 -33 -12 -12 0 -26 5 -33 12 -7 7 -12 21 -12
33 0 12 5 26 12 33 7 7 21 12 33 12 12 0 26 -5 33 -12z"/>
<path d="M2932 1289 c-35 -13 -48 -53 -29 -83 36 -54 107 -36 107 28 0 47 -34
71 -78 55z m58 -23 c15 -19 9 -56 -11 -69 -9 -5 -28 -7 -42 -3 -48 12 -32 86
19 86 12 0 27 -7 34 -14z"/>
<path d="M3416 1287 c-23 -17 -17 -51 9 -55 56 -11 52 -47 -4 -39 -33 6 -34 5
-17 -8 25 -19 37 -19 61 -1 25 18 13 44 -25 57 -41 15 -41 43 0 37 32 -5 41 6
14 16 -20 8 -17 8 -38 -7z"/>
<path d="M2062 1238 c-1 -31 1 -59 6 -61 4 -2 21 0 37 4 l30 7 -32 1 c-31 1
-32 2 -36 54 l-3 52 -2 -57z"/>
<path d="M2272 1243 c-2 -42 2 -54 17 -63 45 -23 72 3 70 68 -1 31 -3 37 -6
17 -8 -70 -12 -76 -41 -73 -24 3 -28 8 -33 53 l-6 50 -1 -52z"/>
<path d="M2517 1283 c19 -4 23 -12 26 -56 l3 -52 2 52 c2 45 5 52 25 56 12 2
0 4 -28 4 -27 0 -40 -2 -28 -4z"/>
<path d="M2739 1283 c-8 -69 -7 -93 1 -98 6 -4 10 15 10 49 0 31 -2 56 -5 56
-3 0 -5 -3 -6 -7z"/>
<path d="M3150 1235 c0 -64 17 -75 22 -14 l3 41 30 -41 c17 -22 33 -41 38 -41
4 0 6 26 5 58 l-1 57 -6 -45 -6 -45 -34 43 c-19 23 -38 42 -43 42 -4 0 -8 -25
-8 -55z"/>
<path d="M3808 1233 c101 -2 263 -2 360 0 97 1 15 2 -183 2 -198 0 -278 -1
-177 -2z"/>
<path d="M714 1218 c-2 -3 159 -7 358 -7 199 -1 360 1 357 3 -7 8 -710 12
-715 4z"/>
</g>
</svg>
